<svg width="432" height="116" viewBox="0 0 432 116" fill="none" xmlns="http://www.w3.org/2000/svg">
<rect x="2" y="32" width="430" height="84" fill="url(#paint0_linear_0_1)"/>
<rect x="2" y="32" width="430" height="84" fill="url(#paint1_linear_0_1)"/>
<path d="M21.8864 9.15909H16.2045C16.1288 8.57576 15.9735 8.04924 15.7386 7.57954C15.5038 7.10985 15.1932 6.70833 14.8068 6.375C14.4205 6.04167 13.9621 5.78788 13.4318 5.61364C12.9091 5.43182 12.3295 5.34091 11.6932 5.34091C10.5644 5.34091 9.59091 5.61742 8.77273 6.17045C7.96212 6.72348 7.33712 7.52273 6.89773 8.56818C6.46591 9.61364 6.25 10.8788 6.25 12.3636C6.25 13.9091 6.4697 15.2045 6.90909 16.25C7.35606 17.2879 7.98106 18.072 8.78409 18.6023C9.5947 19.125 10.553 19.3864 11.6591 19.3864C12.2803 19.3864 12.8447 19.3068 13.3523 19.1477C13.8674 18.9886 14.3182 18.7576 14.7045 18.4545C15.0985 18.1439 15.4205 17.7689 15.6705 17.3295C15.928 16.8826 16.1061 16.3788 16.2045 15.8182L21.8864 15.8523C21.7879 16.8826 21.4886 17.8977 20.9886 18.8977C20.4962 19.8977 19.8182 20.8106 18.9545 21.6364C18.0909 22.4545 17.0379 23.1061 15.7955 23.5909C14.5606 24.0758 13.1439 24.3182 11.5455 24.3182C9.43939 24.3182 7.55303 23.8561 5.88636 22.9318C4.22727 22 2.91667 20.6439 1.95455 18.8636C0.992424 17.0833 0.511364 14.9167 0.511364 12.3636C0.511364 9.80303 1 7.63258 1.97727 5.85227C2.95455 4.07197 4.27652 2.7197 5.94318 1.79545C7.60985 0.871211 9.47727 0.40909 11.5455 0.40909C12.9545 0.40909 14.2576 0.60606 15.4545 1C16.6515 1.38636 17.7045 1.95454 18.6136 2.70454C19.5227 3.44697 20.2614 4.35985 20.8295 5.44318C21.3977 6.52652 21.75 7.76515 21.8864 9.15909ZM40.1392 0.181818L41.6392 3.85227C41.1619 4.22348 40.6392 4.50379 40.071 4.69318C39.5104 4.88258 38.8248 5.01136 38.0142 5.07954C37.2036 5.14773 36.1809 5.18561 34.946 5.19318C33.5521 5.20076 32.4233 5.39394 31.5597 5.77273C30.696 6.14394 30.0407 6.75379 29.5938 7.60227C29.1544 8.44318 28.8627 9.56439 28.7188 10.9659H28.8665C29.3665 9.91288 30.0786 9.08333 31.0028 8.47727C31.9271 7.87121 33.1203 7.56818 34.5824 7.56818C36.1051 7.56818 37.4309 7.89773 38.5597 8.55682C39.6884 9.20833 40.5597 10.1402 41.1733 11.3523C41.7869 12.5568 42.0938 13.9886 42.0938 15.6477C42.0938 17.4053 41.7415 18.9356 41.0369 20.2386C40.3324 21.5417 39.3248 22.5492 38.0142 23.2614C36.7036 23.9735 35.1354 24.3295 33.3097 24.3295C31.4839 24.3295 29.9119 23.9583 28.5938 23.2159C27.2831 22.4735 26.2718 21.3826 25.5597 19.9432C24.8551 18.4962 24.5028 16.7197 24.5028 14.6136V13.3409C24.5028 9.02273 25.3741 5.8447 27.1165 3.80682C28.8589 1.76894 31.4044 0.742424 34.7528 0.727272C35.5938 0.719696 36.3551 0.719696 37.0369 0.727272C37.7263 0.727272 38.3286 0.693181 38.8438 0.625C39.3589 0.549241 39.7907 0.401514 40.1392 0.181818ZM33.3438 20.1364C33.9801 20.1364 34.5294 19.9659 34.9915 19.625C35.4536 19.2841 35.8097 18.7955 36.0597 18.1591C36.3097 17.5227 36.4347 16.7576 36.4347 15.8636C36.4347 14.9697 36.3059 14.2083 36.0483 13.5795C35.7983 12.9508 35.4422 12.4735 34.9801 12.1477C34.518 11.8144 33.9688 11.6477 33.3324 11.6477C32.8475 11.6477 32.4081 11.7424 32.0142 11.9318C31.6203 12.1136 31.2869 12.3864 31.0142 12.75C30.7415 13.1061 30.5331 13.5455 30.3892 14.0682C30.2453 14.5909 30.1733 15.1894 30.1733 15.8636C30.1733 17.197 30.4536 18.2424 31.0142 19C31.5748 19.7576 32.3513 20.1364 33.3438 20.1364ZM53.1591 24.3295C51.3258 24.3295 49.75 23.9545 48.4318 23.2045C47.1212 22.447 46.1098 21.3939 45.3977 20.0455C44.6932 18.6894 44.3409 17.1174 44.3409 15.3295C44.3409 13.5341 44.6932 11.9621 45.3977 10.6136C46.1098 9.25758 47.1212 8.20454 48.4318 7.45454C49.75 6.69697 51.3258 6.31818 53.1591 6.31818C54.9924 6.31818 56.5644 6.69697 57.875 7.45454C59.1932 8.20454 60.2045 9.25758 60.9091 10.6136C61.6212 11.9621 61.9773 13.5341 61.9773 15.3295C61.9773 17.1174 61.6212 18.6894 60.9091 20.0455C60.2045 21.3939 59.1932 22.447 57.875 23.2045C56.5644 23.9545 54.9924 24.3295 53.1591 24.3295ZM53.1932 20.1364C53.8598 20.1364 54.4242 19.9318 54.8864 19.5227C55.3485 19.1136 55.7008 18.5455 55.9432 17.8182C56.1932 17.0909 56.3182 16.25 56.3182 15.2955C56.3182 14.3258 56.1932 13.4773 55.9432 12.75C55.7008 12.0227 55.3485 11.4545 54.8864 11.0455C54.4242 10.6364 53.8598 10.4318 53.1932 10.4318C52.5038 10.4318 51.9205 10.6364 51.4432 11.0455C50.9735 11.4545 50.6136 12.0227 50.3636 12.75C50.1212 13.4773 50 14.3258 50 15.2955C50 16.25 50.1212 17.0909 50.3636 17.8182C50.6136 18.5455 50.9735 19.1136 51.4432 19.5227C51.9205 19.9318 52.5038 20.1364 53.1932 20.1364ZM64.8239 30.5455V6.54545H70.3239V9.53409H70.4943C70.7216 9.00379 71.0436 8.49242 71.4602 8C71.8845 7.50758 72.4223 7.10606 73.0739 6.79545C73.733 6.47727 74.5208 6.31818 75.4375 6.31818C76.6496 6.31818 77.7822 6.63636 78.8352 7.27273C79.8958 7.90909 80.7519 8.89015 81.4034 10.2159C82.0549 11.5417 82.3807 13.2311 82.3807 15.2841C82.3807 17.2614 82.0663 18.9167 81.4375 20.25C80.8163 21.5833 79.9754 22.5833 78.9148 23.25C77.8617 23.9167 76.6913 24.25 75.4034 24.25C74.5246 24.25 73.7633 24.1061 73.1193 23.8182C72.4754 23.5303 71.9337 23.1515 71.4943 22.6818C71.0625 22.2121 70.7292 21.7083 70.4943 21.1705H70.3807V30.5455H64.8239ZM70.267 15.2727C70.267 16.2121 70.392 17.0303 70.642 17.7273C70.8996 18.4242 71.267 18.9659 71.7443 19.3523C72.2292 19.7311 72.8087 19.9205 73.483 19.9205C74.1648 19.9205 74.7443 19.7311 75.2216 19.3523C75.6989 18.9659 76.0587 18.4242 76.3011 17.7273C76.5511 17.0303 76.6761 16.2121 76.6761 15.2727C76.6761 14.3333 76.5511 13.5189 76.3011 12.8295C76.0587 12.1402 75.6989 11.6061 75.2216 11.2273C74.7519 10.8485 74.1723 10.6591 73.483 10.6591C72.8011 10.6591 72.2216 10.8447 71.7443 11.2159C71.267 11.5871 70.8996 12.1174 70.642 12.8068C70.392 13.4962 70.267 14.3182 70.267 15.2727ZM85.2926 24V6.54545H90.8494V13.0455H92.0767L96.3153 6.54545H102.747L96.8722 15.2841L102.804 24H96.2926L92.4631 18.2045H90.8494V24H85.2926ZM109.463 24.2955C108.349 24.2955 107.361 24.1098 106.497 23.7386C105.641 23.3598 104.963 22.7917 104.463 22.0341C103.971 21.2689 103.724 20.3106 103.724 19.1591C103.724 18.1894 103.895 17.3712 104.236 16.7045C104.577 16.0379 105.046 15.4962 105.645 15.0795C106.243 14.6629 106.933 14.3485 107.713 14.1364C108.493 13.9167 109.327 13.7689 110.213 13.6932C111.205 13.6023 112.005 13.5076 112.611 13.4091C113.217 13.303 113.656 13.1553 113.929 12.9659C114.209 12.7689 114.349 12.4924 114.349 12.1364V12.0795C114.349 11.4962 114.149 11.0455 113.747 10.7273C113.346 10.4091 112.804 10.25 112.122 10.25C111.387 10.25 110.796 10.4091 110.349 10.7273C109.902 11.0455 109.618 11.4848 109.497 12.0455L104.372 11.8636C104.524 10.803 104.914 9.85606 105.543 9.02273C106.179 8.18182 107.05 7.52273 108.156 7.04545C109.27 6.56061 110.607 6.31818 112.168 6.31818C113.281 6.31818 114.308 6.45076 115.247 6.71591C116.187 6.97348 117.005 7.35227 117.702 7.85227C118.399 8.3447 118.937 8.95076 119.315 9.67045C119.702 10.3902 119.895 11.2121 119.895 12.1364V24H114.668V21.5682H114.531C114.221 22.1591 113.823 22.6591 113.338 23.0682C112.861 23.4773 112.296 23.7841 111.645 23.9886C111.001 24.1932 110.274 24.2955 109.463 24.2955ZM111.179 20.6591C111.777 20.6591 112.315 20.5379 112.793 20.2955C113.277 20.053 113.664 19.7197 113.952 19.2955C114.24 18.8636 114.384 18.3636 114.384 17.7955V16.1364C114.224 16.2197 114.031 16.2955 113.804 16.3636C113.584 16.4318 113.342 16.4962 113.077 16.5568C112.812 16.6174 112.539 16.6705 112.259 16.7159C111.978 16.7614 111.709 16.803 111.452 16.8409C110.929 16.9242 110.482 17.053 110.111 17.2273C109.747 17.4015 109.467 17.6288 109.27 17.9091C109.08 18.1818 108.986 18.5076 108.986 18.8864C108.986 19.4621 109.19 19.9015 109.599 20.2045C110.016 20.5076 110.543 20.6591 111.179 20.6591ZM142.304 16.8068L147.884 6.54545H153.224V24H147.963V13.7045L142.395 24H137.043V6.54545H142.304V16.8068ZM167.034 30.5455C166.367 30.5455 165.739 30.4924 165.148 30.3864C164.557 30.2879 164.049 30.1553 163.625 29.9886L164.852 25.9545C165.398 26.1364 165.89 26.2424 166.33 26.2727C166.777 26.303 167.159 26.2311 167.477 26.0568C167.803 25.8902 168.053 25.5909 168.227 25.1591L168.443 24.6364L162.239 6.54545H168.057L171.273 19H171.455L174.716 6.54545H180.568L173.989 25.6705C173.67 26.625 173.22 27.4659 172.636 28.1932C172.061 28.928 171.314 29.5038 170.398 29.9205C169.489 30.3371 168.367 30.5455 167.034 30.5455ZM182.699 24V6.54545H188.256V13.0455H189.483L193.722 6.54545H200.153L194.278 15.2841L200.21 24H193.699L189.869 18.2045H188.256V24H182.699ZM209.378 24.3295C207.545 24.3295 205.969 23.9545 204.651 23.2045C203.34 22.447 202.329 21.3939 201.616 20.0455C200.912 18.6894 200.56 17.1174 200.56 15.3295C200.56 13.5341 200.912 11.9621 201.616 10.6136C202.329 9.25758 203.34 8.20454 204.651 7.45454C205.969 6.69697 207.545 6.31818 209.378 6.31818C211.211 6.31818 212.783 6.69697 214.094 7.45454C215.412 8.20454 216.423 9.25758 217.128 10.6136C217.84 11.9621 218.196 13.5341 218.196 15.3295C218.196 17.1174 217.84 18.6894 217.128 20.0455C216.423 21.3939 215.412 22.447 214.094 23.2045C212.783 23.9545 211.211 24.3295 209.378 24.3295ZM209.412 20.1364C210.079 20.1364 210.643 19.9318 211.105 19.5227C211.567 19.1136 211.92 18.5455 212.162 17.8182C212.412 17.0909 212.537 16.25 212.537 15.2955C212.537 14.3258 212.412 13.4773 212.162 12.75C211.92 12.0227 211.567 11.4545 211.105 11.0455C210.643 10.6364 210.079 10.4318 209.412 10.4318C208.723 10.4318 208.139 10.6364 207.662 11.0455C207.192 11.4545 206.832 12.0227 206.582 12.75C206.34 13.4773 206.219 14.3258 206.219 15.2955C206.219 16.25 206.34 17.0909 206.582 17.8182C206.832 18.5455 207.192 19.1136 207.662 19.5227C208.139 19.9318 208.723 20.1364 209.412 20.1364ZM231.611 18.0682L235.884 6.54545H239.952L233.395 24H229.827L223.44 6.54545H227.497L231.611 18.0682ZM226.304 6.54545V24H221.043V6.54545H226.304ZM237.236 24V6.54545H242.429V24H237.236ZM245.793 24V6.54545H261.554V24H256.293V10.7955H250.986V24H245.793ZM264.222 24L264.188 19.7159H264.744C265.123 19.7159 265.453 19.6174 265.733 19.4205C266.013 19.2235 266.248 18.9091 266.438 18.4773C266.627 18.0379 266.778 17.4735 266.892 16.7841C267.006 16.0947 267.078 15.2576 267.108 14.2727L267.392 6.54545H281.21V24H275.949V10.7955H272.335L272.062 15.8182C271.994 17.2955 271.801 18.5568 271.483 19.6023C271.172 20.6402 270.748 21.4811 270.21 22.125C269.68 22.7689 269.051 23.2424 268.324 23.5455C267.597 23.8485 266.775 24 265.858 24H264.222ZM292.764 24.3295C290.938 24.3295 289.363 23.9697 288.037 23.25C286.719 22.5227 285.704 21.4886 284.991 20.1477C284.287 18.7992 283.935 17.197 283.935 15.3409C283.935 13.5379 284.291 11.9621 285.003 10.6136C285.715 9.25758 286.719 8.20454 288.014 7.45454C289.31 6.69697 290.836 6.31818 292.594 6.31818C293.836 6.31818 294.973 6.51136 296.003 6.89773C297.033 7.28409 297.923 7.85606 298.673 8.61364C299.423 9.37121 300.007 10.3068 300.423 11.4205C300.84 12.5265 301.048 13.7955 301.048 15.2273V16.6136H285.878V13.3864H295.878C295.87 12.7955 295.73 12.2689 295.457 11.8068C295.185 11.3447 294.81 10.9848 294.332 10.7273C293.863 10.4621 293.321 10.3295 292.707 10.3295C292.086 10.3295 291.529 10.4697 291.037 10.75C290.545 11.0227 290.154 11.3977 289.866 11.875C289.579 12.3447 289.427 12.8788 289.412 13.4773V16.7614C289.412 17.4735 289.552 18.0985 289.832 18.6364C290.113 19.1667 290.51 19.5795 291.026 19.875C291.541 20.1705 292.154 20.3182 292.866 20.3182C293.359 20.3182 293.806 20.25 294.207 20.1136C294.609 19.9773 294.954 19.7765 295.241 19.5114C295.529 19.2462 295.745 18.9205 295.889 18.5341L300.991 18.6818C300.779 19.8258 300.313 20.822 299.594 21.6705C298.882 22.5114 297.946 23.1667 296.787 23.6364C295.628 24.0985 294.287 24.3295 292.764 24.3295ZM303.886 24V6.54545H309.443V13.0455H310.67L314.909 6.54545H321.341L315.466 15.2841L321.398 24H314.886L311.057 18.2045H309.443V24H303.886ZM322.25 10.7955V6.54545H338.614V10.7955H333.034V24H327.761V10.7955H322.25ZM345.651 24.2955C344.537 24.2955 343.548 24.1098 342.685 23.7386C341.829 23.3598 341.151 22.7917 340.651 22.0341C340.158 21.2689 339.912 20.3106 339.912 19.1591C339.912 18.1894 340.082 17.3712 340.423 16.7045C340.764 16.0379 341.234 15.4962 341.832 15.0795C342.431 14.6629 343.12 14.3485 343.901 14.1364C344.681 13.9167 345.514 13.7689 346.401 13.6932C347.393 13.6023 348.192 13.5076 348.798 13.4091C349.404 13.303 349.844 13.1553 350.116 12.9659C350.397 12.7689 350.537 12.4924 350.537 12.1364V12.0795C350.537 11.4962 350.336 11.0455 349.935 10.7273C349.533 10.4091 348.991 10.25 348.31 10.25C347.575 10.25 346.984 10.4091 346.537 10.7273C346.09 11.0455 345.806 11.4848 345.685 12.0455L340.56 11.8636C340.711 10.803 341.101 9.85606 341.73 9.02273C342.366 8.18182 343.238 7.52273 344.344 7.04545C345.457 6.56061 346.795 6.31818 348.355 6.31818C349.469 6.31818 350.495 6.45076 351.435 6.71591C352.374 6.97348 353.192 7.35227 353.889 7.85227C354.586 8.3447 355.124 8.95076 355.503 9.67045C355.889 10.3902 356.082 11.2121 356.082 12.1364V24H350.855V21.5682H350.719C350.408 22.1591 350.01 22.6591 349.526 23.0682C349.048 23.4773 348.484 23.7841 347.832 23.9886C347.188 24.1932 346.461 24.2955 345.651 24.2955ZM347.366 20.6591C347.965 20.6591 348.503 20.5379 348.98 20.2955C349.465 20.053 349.851 19.7197 350.139 19.2955C350.427 18.8636 350.571 18.3636 350.571 17.7955V16.1364C350.412 16.2197 350.219 16.2955 349.991 16.3636C349.772 16.4318 349.529 16.4962 349.264 16.5568C348.999 16.6174 348.726 16.6705 348.446 16.7159C348.166 16.7614 347.897 16.803 347.639 16.8409C347.116 16.9242 346.67 17.053 346.298 17.2273C345.935 17.4015 345.654 17.6288 345.457 17.9091C345.268 18.1818 345.173 18.5076 345.173 18.8864C345.173 19.4621 345.378 19.9015 345.787 20.2045C346.204 20.5076 346.73 20.6591 347.366 20.6591ZM375.241 6.54545V20.375H378.139V29.6023H372.764V24H359.48V6.54545H364.741V19.75H370.06V6.54545H375.241ZM385.991 16.8068L391.571 6.54545H396.912V24H391.651V13.7045L386.082 24H380.73V6.54545H385.991V16.8068ZM410.585 24V10.7841H407.767C406.926 10.7841 406.297 10.9773 405.881 11.3636C405.464 11.75 405.263 12.1742 405.278 12.6364C405.263 13.1136 405.468 13.5341 405.892 13.8977C406.316 14.2614 406.956 14.4432 407.812 14.4432H412.506V17.9659H407.812C406.214 17.9659 404.828 17.7348 403.653 17.2727C402.487 16.803 401.585 16.1553 400.949 15.3295C400.32 14.4962 400.009 13.5379 400.017 12.4545C400.009 11.2955 400.32 10.2727 400.949 9.38636C401.578 8.49242 402.472 7.79545 403.631 7.29545C404.797 6.79545 406.176 6.54545 407.767 6.54545H415.756V24H410.585ZM399.676 24L404.483 14.7727H409.688L404.881 24H399.676Z" fill="white"/>
<path d="M111.29 80.3089C109.571 80.3089 108.094 79.9574 106.858 79.2543C105.629 78.544 104.681 77.5568 104.013 76.2926C103.353 75.0213 103.023 73.5476 103.023 71.8714C103.023 70.1882 103.353 68.7145 104.013 67.4503C104.681 66.179 105.629 65.1918 106.858 64.4886C108.094 63.7784 109.571 63.4233 111.29 63.4233C113.009 63.4233 114.482 63.7784 115.711 64.4886C116.947 65.1918 117.895 66.179 118.555 67.4503C119.223 68.7145 119.557 70.1882 119.557 71.8714C119.557 73.5476 119.223 75.0213 118.555 76.2926C117.895 77.5568 116.947 78.544 115.711 79.2543C114.482 79.9574 113.009 80.3089 111.29 80.3089ZM111.322 76.3778C111.947 76.3778 112.476 76.1861 112.909 75.8026C113.342 75.419 113.673 74.8864 113.9 74.2045C114.134 73.5227 114.251 72.7344 114.251 71.8395C114.251 70.9304 114.134 70.1349 113.9 69.4531C113.673 68.7713 113.342 68.2386 112.909 67.8551C112.476 67.4716 111.947 67.2798 111.322 67.2798C110.675 67.2798 110.129 67.4716 109.681 67.8551C109.241 68.2386 108.903 68.7713 108.669 69.4531C108.442 70.1349 108.328 70.9304 108.328 71.8395C108.328 72.7344 108.442 73.5227 108.669 74.2045C108.903 74.8864 109.241 75.419 109.681 75.8026C110.129 76.1861 110.675 76.3778 111.322 76.3778ZM120.809 67.6207V63.6364H136.15V67.6207H130.919V80H125.975V67.6207H120.809ZM155.123 58.1818V80H149.86V63.1037H149.733L144.853 66.0866V61.527L150.233 58.1818H155.123ZM165.305 84.826V75.9837H166.53C166.9 75.799 167.194 75.4439 167.415 74.9183C167.635 74.3857 167.809 73.7642 167.937 73.054C168.072 72.3366 168.171 71.5909 168.235 70.8168C168.306 70.0355 168.37 69.3004 168.427 68.6115L168.81 63.6364H182.063V75.9837H184.62V84.826H179.677V80H170.376V84.826H165.305ZM171.601 75.9837H177.205V67.5142H173.157L173.072 68.6115C172.972 70.3729 172.816 71.8501 172.603 73.0433C172.39 74.2365 172.056 75.2166 171.601 75.9837ZM194.669 80.3089C192.95 80.3089 191.473 79.9574 190.237 79.2543C189.008 78.544 188.06 77.5568 187.392 76.2926C186.732 75.0213 186.402 73.5476 186.402 71.8714C186.402 70.1882 186.732 68.7145 187.392 67.4503C188.06 66.179 189.008 65.1918 190.237 64.4886C191.473 63.7784 192.95 63.4233 194.669 63.4233C196.387 63.4233 197.861 63.7784 199.09 64.4886C200.326 65.1918 201.274 66.179 201.934 67.4503C202.602 68.7145 202.936 70.1882 202.936 71.8714C202.936 73.5476 202.602 75.0213 201.934 76.2926C201.274 77.5568 200.326 78.544 199.09 79.2543C197.861 79.9574 196.387 80.3089 194.669 80.3089ZM194.701 76.3778C195.326 76.3778 195.855 76.1861 196.288 75.8026C196.721 75.419 197.051 74.8864 197.279 74.2045C197.513 73.5227 197.63 72.7344 197.63 71.8395C197.63 70.9304 197.513 70.1349 197.279 69.4531C197.051 68.7713 196.721 68.2386 196.288 67.8551C195.855 67.4716 195.326 67.2798 194.701 67.2798C194.054 67.2798 193.507 67.4716 193.06 67.8551C192.62 68.2386 192.282 68.7713 192.048 69.4531C191.821 70.1349 191.707 70.9304 191.707 71.8395C191.707 72.7344 191.821 73.5227 192.048 74.2045C192.282 74.8864 192.62 75.419 193.06 75.8026C193.507 76.1861 194.054 76.3778 194.701 76.3778ZM212.007 80V76.2074L219.965 69.2401C220.562 68.7003 221.07 68.2067 221.489 67.7592C221.908 67.3047 222.227 66.8501 222.447 66.3956C222.668 65.9339 222.778 65.4332 222.778 64.8935C222.778 64.2898 222.646 63.7749 222.384 63.3487C222.121 62.9155 221.759 62.5817 221.297 62.3473C220.835 62.1129 220.306 61.9957 219.71 61.9957C219.106 61.9957 218.577 62.12 218.122 62.3686C217.668 62.6101 217.313 62.9616 217.057 63.4233C216.808 63.8849 216.684 64.446 216.684 65.1065H211.688C211.688 63.6222 212.021 62.3402 212.689 61.2607C213.357 60.1811 214.294 59.3501 215.501 58.7678C216.716 58.1783 218.126 57.8835 219.731 57.8835C221.386 57.8835 222.824 58.1605 224.045 58.7145C225.267 59.2685 226.212 60.0426 226.879 61.0369C227.554 62.0241 227.891 63.1712 227.891 64.478C227.891 65.3089 227.724 66.1328 227.391 66.9496C227.057 67.7663 226.457 68.6683 225.59 69.6555C224.731 70.6428 223.509 71.8253 221.925 73.2031L219.315 75.6108V75.7493H228.158V80H212.007ZM236.497 84.826V75.9837H237.722C238.091 75.799 238.386 75.4439 238.606 74.9183C238.826 74.3857 239 73.7642 239.128 73.054C239.263 72.3366 239.362 71.5909 239.426 70.8168C239.497 70.0355 239.561 69.3004 239.618 68.6115L240.002 63.6364H253.254V75.9837H255.811V84.826H250.868V80H241.568V84.826H236.497ZM242.793 75.9837H248.396V67.5142H244.348L244.263 68.6115C244.164 70.3729 244.007 71.8501 243.794 73.0433C243.581 74.2365 243.247 75.2166 242.793 75.9837ZM269.759 69.7834V73.7571H261.364V69.7834H269.759ZM263.154 63.6364V80H258.222V63.6364H263.154ZM272.902 63.6364V80H268.001V63.6364H272.902ZM283.713 80.3089C282.001 80.3089 280.524 79.9716 279.281 79.2969C278.045 78.6151 277.093 77.6456 276.426 76.3885C275.765 75.1243 275.435 73.6222 275.435 71.8821C275.435 70.1918 275.769 68.7145 276.436 67.4503C277.104 66.179 278.045 65.1918 279.259 64.4886C280.474 63.7784 281.905 63.4233 283.553 63.4233C284.718 63.4233 285.783 63.6044 286.749 63.9666C287.715 64.3288 288.549 64.8651 289.252 65.5753C289.955 66.2855 290.502 67.1626 290.893 68.2067C291.284 69.2436 291.479 70.4332 291.479 71.7756V73.0753H277.257V70.0497H286.632C286.624 69.4957 286.493 69.0021 286.237 68.5689C285.982 68.1357 285.63 67.7983 285.183 67.5568C284.742 67.3082 284.235 67.1839 283.659 67.1839C283.077 67.1839 282.555 67.3153 282.093 67.5781C281.632 67.8338 281.266 68.1854 280.996 68.6328C280.726 69.0732 280.584 69.5739 280.57 70.1349V73.2138C280.57 73.8814 280.701 74.4673 280.964 74.9716C281.227 75.4687 281.6 75.8558 282.083 76.1328C282.566 76.4098 283.141 76.5483 283.808 76.5483C284.27 76.5483 284.689 76.4844 285.066 76.3565C285.442 76.2287 285.765 76.0405 286.035 75.7919C286.305 75.5433 286.507 75.2379 286.642 74.8757L291.426 75.0142C291.227 76.0866 290.79 77.0206 290.115 77.8161C289.448 78.6044 288.57 79.2187 287.484 79.6591C286.397 80.0923 285.14 80.3089 283.713 80.3089ZM299.072 73.2564L304.303 63.6364H309.31V80H304.377V70.348L299.157 80H294.14V63.6364H299.072V73.2564ZM303.834 57.8409H307.265C307.257 59.1761 306.753 60.2486 305.752 61.0582C304.757 61.8679 303.408 62.2727 301.703 62.2727C299.999 62.2727 298.646 61.8679 297.645 61.0582C296.65 60.2486 296.157 59.1761 296.164 57.8409H299.562C299.555 58.3097 299.715 58.7358 300.042 59.1193C300.368 59.5028 300.922 59.6946 301.703 59.6946C302.463 59.6946 303.007 59.5064 303.333 59.13C303.66 58.7536 303.827 58.3239 303.834 57.8409Z" fill="white"/>
<defs>
<linearGradient id="paint0_linear_0_1" x1="432" y1="32" x2="16.9325" y2="163.23" gradientUnits="userSpaceOnUse">
<stop stop-color="#4500A1"/>
<stop offset="1" stop-color="#4500A1" stop-opacity="0"/>
</linearGradient>
<linearGradient id="paint1_linear_0_1" x1="1.99999" y1="116" x2="417.068" y2="-15.23" gradientUnits="userSpaceOnUse">
<stop stop-color="#EE5E30"/>
<stop offset="0.885417" stop-color="#EE5E30" stop-opacity="0"/>
</linearGradient>
</defs>
</svg>
