<svg width="418" height="60" viewBox="0 0 418 60" fill="none" xmlns="http://www.w3.org/2000/svg">
<rect y="33" width="418" height="27" fill="url(#paint0_linear_0_1)"/>
<rect y="33" width="418" height="27" fill="url(#paint1_linear_0_1)"/>
<path d="M24.7273 12.3636C24.7273 14.9242 24.2348 17.0947 23.25 18.875C22.2652 20.6553 20.9318 22.0076 19.25 22.9318C17.5758 23.8561 15.697 24.3182 13.6136 24.3182C11.5227 24.3182 9.64015 23.8523 7.96591 22.9205C6.29167 21.9886 4.96212 20.6364 3.97727 18.8636C3 17.0833 2.51136 14.9167 2.51136 12.3636C2.51136 9.80303 3 7.63258 3.97727 5.85227C4.96212 4.07197 6.29167 2.7197 7.96591 1.79545C9.64015 0.871211 11.5227 0.40909 13.6136 0.40909C15.697 0.40909 17.5758 0.871211 19.25 1.79545C20.9318 2.7197 22.2652 4.07197 23.25 5.85227C24.2348 7.63258 24.7273 9.80303 24.7273 12.3636ZM18.9773 12.3636C18.9773 10.8485 18.7614 9.56818 18.3295 8.52273C17.9053 7.47727 17.2917 6.6856 16.4886 6.14773C15.6932 5.60985 14.7348 5.34091 13.6136 5.34091C12.5 5.34091 11.5417 5.60985 10.7386 6.14773C9.93561 6.6856 9.31818 7.47727 8.88636 8.52273C8.46212 9.56818 8.25 10.8485 8.25 12.3636C8.25 13.8788 8.46212 15.1591 8.88636 16.2045C9.31818 17.25 9.93561 18.0417 10.7386 18.5795C11.5417 19.1174 12.5 19.3864 13.6136 19.3864C14.7348 19.3864 15.6932 19.1174 16.4886 18.5795C17.2917 18.0417 17.9053 17.25 18.3295 16.2045C18.7614 15.1591 18.9773 13.8788 18.9773 12.3636ZM27.125 10.7955V6.54545H43.4886V10.7955H37.9091V24H32.6364V10.7955H27.125ZM46.1364 24V6.54545H61.8977V24H56.6364V10.7955H51.3295V24H46.1364ZM65.4176 30.5455V6.54545H70.9176V9.53409H71.0881C71.3153 9.00379 71.6373 8.49242 72.054 8C72.4782 7.50758 73.0161 7.10606 73.6676 6.79545C74.3267 6.47727 75.1146 6.31818 76.0312 6.31818C77.2434 6.31818 78.3759 6.63636 79.429 7.27273C80.4896 7.90909 81.3456 8.89015 81.9972 10.2159C82.6487 11.5417 82.9744 13.2311 82.9744 15.2841C82.9744 17.2614 82.66 18.9167 82.0312 20.25C81.41 21.5833 80.5691 22.5833 79.5085 23.25C78.4555 23.9167 77.285 24.25 75.9972 24.25C75.1184 24.25 74.357 24.1061 73.7131 23.8182C73.0691 23.5303 72.5275 23.1515 72.0881 22.6818C71.6562 22.2121 71.3229 21.7083 71.0881 21.1705H70.9744V30.5455H65.4176ZM70.8608 15.2727C70.8608 16.2121 70.9858 17.0303 71.2358 17.7273C71.4934 18.4242 71.8608 18.9659 72.3381 19.3523C72.8229 19.7311 73.4025 19.9205 74.0767 19.9205C74.7585 19.9205 75.3381 19.7311 75.8153 19.3523C76.2926 18.9659 76.6525 18.4242 76.8949 17.7273C77.1449 17.0303 77.2699 16.2121 77.2699 15.2727C77.2699 14.3333 77.1449 13.5189 76.8949 12.8295C76.6525 12.1402 76.2926 11.6061 75.8153 11.2273C75.3456 10.8485 74.7661 10.6591 74.0767 10.6591C73.3949 10.6591 72.8153 10.8447 72.3381 11.2159C71.8608 11.5871 71.4934 12.1174 71.2358 12.8068C70.9858 13.4962 70.8608 14.3182 70.8608 15.2727ZM90.8068 24.2955C89.6932 24.2955 88.7045 24.1098 87.8409 23.7386C86.9848 23.3598 86.3068 22.7917 85.8068 22.0341C85.3144 21.2689 85.0682 20.3106 85.0682 19.1591C85.0682 18.1894 85.2386 17.3712 85.5795 16.7045C85.9205 16.0379 86.3902 15.4962 86.9886 15.0795C87.5871 14.6629 88.2765 14.3485 89.0568 14.1364C89.8371 13.9167 90.6705 13.7689 91.5568 13.6932C92.5492 13.6023 93.3485 13.5076 93.9545 13.4091C94.5606 13.303 95 13.1553 95.2727 12.9659C95.553 12.7689 95.6932 12.4924 95.6932 12.1364V12.0795C95.6932 11.4962 95.4924 11.0455 95.0909 10.7273C94.6894 10.4091 94.1477 10.25 93.4659 10.25C92.7311 10.25 92.1402 10.4091 91.6932 10.7273C91.2462 11.0455 90.9621 11.4848 90.8409 12.0455L85.7159 11.8636C85.8674 10.803 86.2576 9.85606 86.8864 9.02273C87.5227 8.18182 88.3939 7.52273 89.5 7.04545C90.6136 6.56061 91.9508 6.31818 93.5114 6.31818C94.625 6.31818 95.6515 6.45076 96.5909 6.71591C97.5303 6.97348 98.3485 7.35227 99.0455 7.85227C99.7424 8.3447 100.28 8.95076 100.659 9.67045C101.045 10.3902 101.239 11.2121 101.239 12.1364V24H96.0114V21.5682H95.875C95.5644 22.1591 95.1667 22.6591 94.6818 23.0682C94.2045 23.4773 93.6402 23.7841 92.9886 23.9886C92.3447 24.1932 91.6174 24.2955 90.8068 24.2955ZM92.5227 20.6591C93.1212 20.6591 93.6591 20.5379 94.1364 20.2955C94.6212 20.053 95.0076 19.7197 95.2955 19.2955C95.5833 18.8636 95.7273 18.3636 95.7273 17.7955V16.1364C95.5682 16.2197 95.375 16.2955 95.1477 16.3636C94.928 16.4318 94.6856 16.4962 94.4205 16.5568C94.1553 16.6174 93.8826 16.6705 93.6023 16.7159C93.322 16.7614 93.053 16.803 92.7955 16.8409C92.2727 16.9242 91.8258 17.053 91.4545 17.2273C91.0909 17.4015 90.8106 17.6288 90.6136 17.9091C90.4242 18.1818 90.3295 18.5076 90.3295 18.8864C90.3295 19.4621 90.5341 19.9015 90.9432 20.2045C91.3598 20.5076 91.8864 20.6591 92.5227 20.6591ZM104.636 24V6.54545H112.17C114.42 6.54545 116.193 6.95076 117.489 7.76136C118.792 8.56439 119.443 9.74242 119.443 11.2955C119.443 12.197 119.076 12.9735 118.341 13.625C117.614 14.2689 116.58 14.7045 115.239 14.9318C116.42 14.9924 117.402 15.2273 118.182 15.6364C118.962 16.0455 119.545 16.5644 119.932 17.1932C120.318 17.822 120.511 18.4924 120.511 19.2045C120.511 20.2348 120.235 21.1061 119.682 21.8182C119.129 22.5303 118.318 23.072 117.25 23.4432C116.189 23.8144 114.886 24 113.341 24H104.636ZM109.807 19.9773H113.341C113.932 19.9773 114.394 19.8371 114.727 19.5568C115.068 19.2765 115.239 18.8902 115.239 18.3977C115.239 17.8674 115.068 17.4508 114.727 17.1477C114.394 16.8447 113.932 16.6932 113.341 16.6932H109.807V19.9773ZM109.807 13.6818H112.318C112.72 13.6818 113.064 13.6212 113.352 13.5C113.64 13.3788 113.86 13.2045 114.011 12.9773C114.17 12.75 114.25 12.4773 114.25 12.1591C114.25 11.697 114.064 11.3333 113.693 11.0682C113.33 10.803 112.822 10.6705 112.17 10.6705H109.807V13.6818ZM123.261 24V6.54545H128.818V13.0455H130.045L134.284 6.54545H140.716L134.841 15.2841L140.773 24H134.261L130.432 18.2045H128.818V24H123.261ZM147.432 24.2955C146.318 24.2955 145.33 24.1098 144.466 23.7386C143.61 23.3598 142.932 22.7917 142.432 22.0341C141.939 21.2689 141.693 20.3106 141.693 19.1591C141.693 18.1894 141.864 17.3712 142.205 16.7045C142.545 16.0379 143.015 15.4962 143.614 15.0795C144.212 14.6629 144.902 14.3485 145.682 14.1364C146.462 13.9167 147.295 13.7689 148.182 13.6932C149.174 13.6023 149.973 13.5076 150.58 13.4091C151.186 13.303 151.625 13.1553 151.898 12.9659C152.178 12.7689 152.318 12.4924 152.318 12.1364V12.0795C152.318 11.4962 152.117 11.0455 151.716 10.7273C151.314 10.4091 150.773 10.25 150.091 10.25C149.356 10.25 148.765 10.4091 148.318 10.7273C147.871 11.0455 147.587 11.4848 147.466 12.0455L142.341 11.8636C142.492 10.803 142.883 9.85606 143.511 9.02273C144.148 8.18182 145.019 7.52273 146.125 7.04545C147.239 6.56061 148.576 6.31818 150.136 6.31818C151.25 6.31818 152.277 6.45076 153.216 6.71591C154.155 6.97348 154.973 7.35227 155.67 7.85227C156.367 8.3447 156.905 8.95076 157.284 9.67045C157.67 10.3902 157.864 11.2121 157.864 12.1364V24H152.636V21.5682H152.5C152.189 22.1591 151.792 22.6591 151.307 23.0682C150.83 23.4773 150.265 23.7841 149.614 23.9886C148.97 24.1932 148.242 24.2955 147.432 24.2955ZM149.148 20.6591C149.746 20.6591 150.284 20.5379 150.761 20.2955C151.246 20.053 151.633 19.7197 151.92 19.2955C152.208 18.8636 152.352 18.3636 152.352 17.7955V16.1364C152.193 16.2197 152 16.2955 151.773 16.3636C151.553 16.4318 151.311 16.4962 151.045 16.5568C150.78 16.6174 150.508 16.6705 150.227 16.7159C149.947 16.7614 149.678 16.803 149.42 16.8409C148.898 16.9242 148.451 17.053 148.08 17.2273C147.716 17.4015 147.436 17.6288 147.239 17.9091C147.049 18.1818 146.955 18.5076 146.955 18.8864C146.955 19.4621 147.159 19.9015 147.568 20.2045C147.985 20.5076 148.511 20.6591 149.148 20.6591ZM179.307 12.4432V16.7273H168.534V12.4432H179.307ZM182.026 29.1477V19.7159H183.332C183.726 19.5189 184.041 19.1402 184.276 18.5795C184.51 18.0114 184.696 17.3485 184.832 16.5909C184.976 15.8258 185.082 15.0303 185.151 14.2045C185.226 13.3712 185.295 12.5871 185.355 11.8523L185.764 6.54545H199.901V19.7159H202.628V29.1477H197.355V24H187.435V29.1477H182.026ZM188.741 19.7159H194.719V10.6818H190.401L190.31 11.8523C190.204 13.7311 190.037 15.3068 189.81 16.5795C189.582 17.8523 189.226 18.8977 188.741 19.7159ZM213.347 24.3295C211.513 24.3295 209.938 23.9545 208.619 23.2045C207.309 22.447 206.297 21.3939 205.585 20.0455C204.881 18.6894 204.528 17.1174 204.528 15.3295C204.528 13.5341 204.881 11.9621 205.585 10.6136C206.297 9.25758 207.309 8.20454 208.619 7.45454C209.938 6.69697 211.513 6.31818 213.347 6.31818C215.18 6.31818 216.752 6.69697 218.062 7.45454C219.381 8.20454 220.392 9.25758 221.097 10.6136C221.809 11.9621 222.165 13.5341 222.165 15.3295C222.165 17.1174 221.809 18.6894 221.097 20.0455C220.392 21.3939 219.381 22.447 218.062 23.2045C216.752 23.9545 215.18 24.3295 213.347 24.3295ZM213.381 20.1364C214.047 20.1364 214.612 19.9318 215.074 19.5227C215.536 19.1136 215.888 18.5455 216.131 17.8182C216.381 17.0909 216.506 16.25 216.506 15.2955C216.506 14.3258 216.381 13.4773 216.131 12.75C215.888 12.0227 215.536 11.4545 215.074 11.0455C214.612 10.6364 214.047 10.4318 213.381 10.4318C212.691 10.4318 212.108 10.6364 211.631 11.0455C211.161 11.4545 210.801 12.0227 210.551 12.75C210.309 13.4773 210.188 14.3258 210.188 15.2955C210.188 16.25 210.309 17.0909 210.551 17.8182C210.801 18.5455 211.161 19.1136 211.631 19.5227C212.108 19.9318 212.691 20.1364 213.381 20.1364ZM233.159 24.3295C231.318 24.3295 229.739 23.9508 228.42 23.1932C227.11 22.4356 226.102 21.3826 225.398 20.0341C224.693 18.678 224.341 17.1098 224.341 15.3295C224.341 13.5417 224.693 11.9735 225.398 10.625C226.11 9.26894 227.121 8.21212 228.432 7.45454C229.75 6.69697 231.322 6.31818 233.148 6.31818C234.761 6.31818 236.167 6.60985 237.364 7.19318C238.568 7.77651 239.508 8.60227 240.182 9.67045C240.864 10.7311 241.223 11.9773 241.261 13.4091H236.068C235.962 12.5152 235.659 11.8144 235.159 11.3068C234.667 10.7992 234.023 10.5455 233.227 10.5455C232.583 10.5455 232.019 10.7273 231.534 11.0909C231.049 11.447 230.67 11.9773 230.398 12.6818C230.133 13.3788 230 14.2424 230 15.2727C230 16.303 230.133 17.1742 230.398 17.8864C230.67 18.5909 231.049 19.125 231.534 19.4886C232.019 19.8447 232.583 20.0227 233.227 20.0227C233.742 20.0227 234.197 19.9129 234.591 19.6932C234.992 19.4735 235.322 19.1515 235.58 18.7273C235.837 18.2955 236 17.7727 236.068 17.1591H241.261C241.208 18.5985 240.848 19.8561 240.182 20.9318C239.523 22.0076 238.595 22.8447 237.398 23.4432C236.208 24.0341 234.795 24.3295 233.159 24.3295ZM243 10.7955V6.54545H259.364V10.7955H253.784V24H248.511V10.7955H243ZM266.401 24.2955C265.287 24.2955 264.298 24.1098 263.435 23.7386C262.579 23.3598 261.901 22.7917 261.401 22.0341C260.908 21.2689 260.662 20.3106 260.662 19.1591C260.662 18.1894 260.832 17.3712 261.173 16.7045C261.514 16.0379 261.984 15.4962 262.582 15.0795C263.181 14.6629 263.87 14.3485 264.651 14.1364C265.431 13.9167 266.264 13.7689 267.151 13.6932C268.143 13.6023 268.942 13.5076 269.548 13.4091C270.154 13.303 270.594 13.1553 270.866 12.9659C271.147 12.7689 271.287 12.4924 271.287 12.1364V12.0795C271.287 11.4962 271.086 11.0455 270.685 10.7273C270.283 10.4091 269.741 10.25 269.06 10.25C268.325 10.25 267.734 10.4091 267.287 10.7273C266.84 11.0455 266.556 11.4848 266.435 12.0455L261.31 11.8636C261.461 10.803 261.851 9.85606 262.48 9.02273C263.116 8.18182 263.988 7.52273 265.094 7.04545C266.207 6.56061 267.545 6.31818 269.105 6.31818C270.219 6.31818 271.245 6.45076 272.185 6.71591C273.124 6.97348 273.942 7.35227 274.639 7.85227C275.336 8.3447 275.874 8.95076 276.253 9.67045C276.639 10.3902 276.832 11.2121 276.832 12.1364V24H271.605V21.5682H271.469C271.158 22.1591 270.76 22.6591 270.276 23.0682C269.798 23.4773 269.234 23.7841 268.582 23.9886C267.938 24.1932 267.211 24.2955 266.401 24.2955ZM268.116 20.6591C268.715 20.6591 269.253 20.5379 269.73 20.2955C270.215 20.053 270.601 19.7197 270.889 19.2955C271.177 18.8636 271.321 18.3636 271.321 17.7955V16.1364C271.162 16.2197 270.969 16.2955 270.741 16.3636C270.522 16.4318 270.279 16.4962 270.014 16.5568C269.749 16.6174 269.476 16.6705 269.196 16.7159C268.916 16.7614 268.647 16.803 268.389 16.8409C267.866 16.9242 267.42 17.053 267.048 17.2273C266.685 17.4015 266.404 17.6288 266.207 17.9091C266.018 18.1818 265.923 18.5076 265.923 18.8864C265.923 19.4621 266.128 19.9015 266.537 20.2045C266.954 20.5076 267.48 20.6591 268.116 20.6591ZM280.23 24V6.54545H287.764C290.014 6.54545 291.787 6.95076 293.082 7.76136C294.385 8.56439 295.037 9.74242 295.037 11.2955C295.037 12.197 294.67 12.9735 293.935 13.625C293.207 14.2689 292.173 14.7045 290.832 14.9318C292.014 14.9924 292.995 15.2273 293.776 15.6364C294.556 16.0455 295.139 16.5644 295.526 17.1932C295.912 17.822 296.105 18.4924 296.105 19.2045C296.105 20.2348 295.829 21.1061 295.276 21.8182C294.723 22.5303 293.912 23.072 292.844 23.4432C291.783 23.8144 290.48 24 288.935 24H280.23ZM285.401 19.9773H288.935C289.526 19.9773 289.988 19.8371 290.321 19.5568C290.662 19.2765 290.832 18.8902 290.832 18.3977C290.832 17.8674 290.662 17.4508 290.321 17.1477C289.988 16.8447 289.526 16.6932 288.935 16.6932H285.401V19.9773ZM285.401 13.6818H287.912C288.313 13.6818 288.658 13.6212 288.946 13.5C289.234 13.3788 289.454 13.2045 289.605 12.9773C289.764 12.75 289.844 12.4773 289.844 12.1591C289.844 11.697 289.658 11.3333 289.287 11.0682C288.923 10.803 288.416 10.6705 287.764 10.6705H285.401V13.6818ZM298.855 24V6.54545H304.412V13.0455H305.639L309.878 6.54545H316.31L310.435 15.2841L316.366 24H309.855L306.026 18.2045H304.412V24H298.855ZM323.026 24.2955C321.912 24.2955 320.923 24.1098 320.06 23.7386C319.204 23.3598 318.526 22.7917 318.026 22.0341C317.533 21.2689 317.287 20.3106 317.287 19.1591C317.287 18.1894 317.457 17.3712 317.798 16.7045C318.139 16.0379 318.609 15.4962 319.207 15.0795C319.806 14.6629 320.495 14.3485 321.276 14.1364C322.056 13.9167 322.889 13.7689 323.776 13.6932C324.768 13.6023 325.567 13.5076 326.173 13.4091C326.779 13.303 327.219 13.1553 327.491 12.9659C327.772 12.7689 327.912 12.4924 327.912 12.1364V12.0795C327.912 11.4962 327.711 11.0455 327.31 10.7273C326.908 10.4091 326.366 10.25 325.685 10.25C324.95 10.25 324.359 10.4091 323.912 10.7273C323.465 11.0455 323.181 11.4848 323.06 12.0455L317.935 11.8636C318.086 10.803 318.476 9.85606 319.105 9.02273C319.741 8.18182 320.613 7.52273 321.719 7.04545C322.832 6.56061 324.17 6.31818 325.73 6.31818C326.844 6.31818 327.87 6.45076 328.81 6.71591C329.749 6.97348 330.567 7.35227 331.264 7.85227C331.961 8.3447 332.499 8.95076 332.878 9.67045C333.264 10.3902 333.457 11.2121 333.457 12.1364V24H328.23V21.5682H328.094C327.783 22.1591 327.385 22.6591 326.901 23.0682C326.423 23.4773 325.859 23.7841 325.207 23.9886C324.563 24.1932 323.836 24.2955 323.026 24.2955ZM324.741 20.6591C325.34 20.6591 325.878 20.5379 326.355 20.2955C326.84 20.053 327.226 19.7197 327.514 19.2955C327.802 18.8636 327.946 18.3636 327.946 17.7955V16.1364C327.787 16.2197 327.594 16.2955 327.366 16.3636C327.147 16.4318 326.904 16.4962 326.639 16.5568C326.374 16.6174 326.101 16.6705 325.821 16.7159C325.541 16.7614 325.272 16.803 325.014 16.8409C324.491 16.9242 324.045 17.053 323.673 17.2273C323.31 17.4015 323.029 17.6288 322.832 17.9091C322.643 18.1818 322.548 18.5076 322.548 18.8864C322.548 19.4621 322.753 19.9015 323.162 20.2045C323.579 20.5076 324.105 20.6591 324.741 20.6591Z" fill="white"/>
<path d="M58.6307 44.7273C58.6307 46.3134 58.33 47.6629 57.7287 48.7756C57.1321 49.8883 56.3177 50.7382 55.2855 51.3253C54.258 51.9077 53.1027 52.1989 51.8196 52.1989C50.527 52.1989 49.367 51.9053 48.3395 51.3182C47.312 50.7311 46.5 49.8812 45.9034 48.7685C45.3068 47.6558 45.0085 46.3087 45.0085 44.7273C45.0085 43.1411 45.3068 41.7917 45.9034 40.679C46.5 39.5663 47.312 38.7187 48.3395 38.1364C49.367 37.5492 50.527 37.2557 51.8196 37.2557C53.1027 37.2557 54.258 37.5492 55.2855 38.1364C56.3177 38.7187 57.1321 39.5663 57.7287 40.679C58.33 41.7917 58.6307 43.1411 58.6307 44.7273ZM55.5128 44.7273C55.5128 43.6998 55.3589 42.8333 55.0511 42.1278C54.7481 41.4223 54.3196 40.8873 53.7656 40.5227C53.2116 40.1581 52.563 39.9759 51.8196 39.9759C51.0762 39.9759 50.4276 40.1581 49.8736 40.5227C49.3196 40.8873 48.8887 41.4223 48.581 42.1278C48.2779 42.8333 48.1264 43.6998 48.1264 44.7273C48.1264 45.7547 48.2779 46.6212 48.581 47.3267C48.8887 48.0322 49.3196 48.5672 49.8736 48.9318C50.4276 49.2964 51.0762 49.4787 51.8196 49.4787C52.563 49.4787 53.2116 49.2964 53.7656 48.9318C54.3196 48.5672 54.7481 48.0322 55.0511 47.3267C55.3589 46.6212 55.5128 45.7547 55.5128 44.7273ZM60.2837 43.4702V41.0909H70.1701V43.4702H66.6545V52H63.771V43.4702H60.2837ZM81.9812 52.1989C80.9206 52.1989 79.976 52.0166 79.1474 51.652C78.3235 51.2827 77.6725 50.776 77.1942 50.1321C76.7208 49.4834 76.4769 48.7353 76.4627 47.8878H79.5593C79.5782 48.2429 79.6942 48.5554 79.9073 48.8253C80.1251 49.0904 80.4139 49.2964 80.7738 49.4432C81.1336 49.59 81.5385 49.6634 81.9883 49.6634C82.457 49.6634 82.8713 49.5805 83.2312 49.4148C83.591 49.2491 83.8728 49.0194 84.0763 48.7259C84.2799 48.4323 84.3817 48.0937 84.3817 47.7102C84.3817 47.322 84.2728 46.9787 84.055 46.6804C83.842 46.3774 83.5342 46.1406 83.1317 45.9702C82.734 45.7997 82.2605 45.7145 81.7113 45.7145H80.3548V43.456H81.7113C82.1753 43.456 82.5849 43.3755 82.94 43.2145C83.2998 43.0535 83.5792 42.831 83.7781 42.5469C83.9769 42.258 84.0763 41.9219 84.0763 41.5384C84.0763 41.1738 83.9888 40.8542 83.8136 40.5795C83.6431 40.3002 83.4016 40.0824 83.0891 39.9261C82.7814 39.7699 82.4215 39.6918 82.0096 39.6918C81.5929 39.6918 81.2118 39.7675 80.8661 39.919C80.5205 40.0658 80.2435 40.2765 80.0352 40.5511C79.8268 40.8258 79.7156 41.1477 79.7013 41.517H76.7539C76.7681 40.679 77.0072 39.9403 77.4712 39.3011C77.9353 38.6619 78.5603 38.1624 79.3462 37.8026C80.137 37.438 81.0295 37.2557 82.0238 37.2557C83.0276 37.2557 83.9059 37.438 84.6587 37.8026C85.4116 38.1671 85.9963 38.6596 86.413 39.2798C86.8344 39.8954 87.0427 40.5866 87.038 41.3537C87.0427 42.1681 86.7894 42.8475 86.2781 43.392C85.7714 43.9366 85.1109 44.2822 84.2965 44.429V44.5426C85.3666 44.6799 86.181 45.0516 86.7397 45.6577C87.3031 46.259 87.5825 47.0118 87.5778 47.9162C87.5825 48.7448 87.3434 49.4811 86.8604 50.125C86.3822 50.7689 85.7217 51.2756 84.8789 51.6449C84.0361 52.0142 83.0702 52.1989 81.9812 52.1989ZM103.913 41.0909V52H101.044V41.0909H103.913ZM102.514 45.8778V48.2642C102.282 48.3684 101.993 48.4678 101.647 48.5625C101.302 48.6525 100.94 48.7259 100.561 48.7827C100.182 48.8395 99.8268 48.8679 99.4954 48.8679C97.9281 48.8679 96.6947 48.5459 95.7951 47.902C94.8955 47.2533 94.4457 46.2187 94.4457 44.7983V41.0767H97.3008V44.7983C97.3008 45.2197 97.3718 45.5535 97.5138 45.7997C97.6606 46.0459 97.8926 46.2235 98.2099 46.3324C98.5318 46.4366 98.9603 46.4886 99.4954 46.4886C99.9925 46.4886 100.48 46.4366 100.958 46.3324C101.437 46.2282 101.955 46.0767 102.514 45.8778ZM109.373 52.206C108.677 52.206 108.057 52.0852 107.512 51.8438C106.968 51.5975 106.537 51.2353 106.219 50.7571C105.907 50.2741 105.751 49.6728 105.751 48.9531C105.751 48.3471 105.862 47.8381 106.085 47.4261C106.307 47.0142 106.61 46.6828 106.994 46.4318C107.377 46.1809 107.813 45.9915 108.3 45.8636C108.793 45.7358 109.309 45.6458 109.849 45.5938C110.483 45.5275 110.995 45.4659 111.383 45.4091C111.771 45.3475 112.053 45.2576 112.228 45.1392C112.403 45.0208 112.491 44.8456 112.491 44.6136V44.571C112.491 44.1212 112.349 43.7732 112.065 43.527C111.785 43.2808 111.388 43.1577 110.871 43.1577C110.327 43.1577 109.894 43.2784 109.572 43.5199C109.25 43.7566 109.037 44.0549 108.933 44.4148L106.134 44.1875C106.276 43.5246 106.556 42.9517 106.972 42.4688C107.389 41.9811 107.926 41.607 108.585 41.3466C109.247 41.0814 110.014 40.9489 110.886 40.9489C111.492 40.9489 112.072 41.0199 112.626 41.1619C113.184 41.304 113.679 41.5241 114.11 41.8224C114.546 42.1207 114.889 42.5043 115.14 42.973C115.391 43.437 115.516 43.9934 115.516 44.642V52H112.647V50.4872H112.562C112.387 50.8281 112.152 51.1288 111.859 51.3892C111.565 51.6449 111.212 51.8461 110.8 51.9929C110.388 52.1349 109.913 52.206 109.373 52.206ZM110.239 50.1179C110.684 50.1179 111.077 50.0303 111.418 49.8551C111.759 49.6752 112.027 49.4337 112.221 49.1307C112.415 48.8277 112.512 48.4844 112.512 48.1009V46.9432C112.417 47.0047 112.287 47.0616 112.121 47.1136C111.96 47.161 111.778 47.206 111.575 47.2486C111.371 47.2865 111.167 47.322 110.964 47.3551C110.76 47.3835 110.576 47.4096 110.41 47.4332C110.055 47.4853 109.745 47.5682 109.479 47.6818C109.214 47.7955 109.008 47.9493 108.862 48.1435C108.715 48.3329 108.641 48.5696 108.641 48.8537C108.641 49.2656 108.79 49.5805 109.089 49.7983C109.392 50.0114 109.775 50.1179 110.239 50.1179ZM122.793 52.2131C121.675 52.2131 120.714 51.9763 119.909 51.5028C119.109 51.0246 118.493 50.3617 118.062 49.5142C117.636 48.6667 117.423 47.6913 117.423 46.5881C117.423 45.4706 117.639 44.4905 118.07 43.6477C118.505 42.8002 119.123 42.1397 119.923 41.6662C120.723 41.188 121.675 40.9489 122.778 40.9489C123.73 40.9489 124.563 41.1217 125.278 41.4673C125.993 41.813 126.559 42.2983 126.976 42.9233C127.393 43.5483 127.622 44.2822 127.665 45.125H124.81C124.729 44.5805 124.516 44.1425 124.17 43.8111C123.83 43.4749 123.382 43.3068 122.828 43.3068C122.359 43.3068 121.95 43.4347 121.599 43.6903C121.254 43.9413 120.984 44.3082 120.79 44.7912C120.596 45.2741 120.499 45.8589 120.499 46.5455C120.499 47.2415 120.593 47.8333 120.783 48.321C120.977 48.8087 121.249 49.1804 121.599 49.4361C121.95 49.6918 122.359 49.8196 122.828 49.8196C123.174 49.8196 123.484 49.7486 123.759 49.6065C124.038 49.4645 124.268 49.2585 124.447 48.9886C124.632 48.714 124.753 48.3849 124.81 48.0014H127.665C127.617 48.8348 127.39 49.5687 126.983 50.2031C126.58 50.8329 126.024 51.3253 125.314 51.6804C124.604 52.0355 123.763 52.2131 122.793 52.2131ZM134.531 52.2131C133.428 52.2131 132.474 51.9787 131.669 51.5099C130.868 51.0365 130.251 50.3783 129.815 49.5355C129.379 48.688 129.162 47.7055 129.162 46.5881C129.162 45.4612 129.379 44.4763 129.815 43.6335C130.251 42.786 130.868 42.1278 131.669 41.6591C132.474 41.1856 133.428 40.9489 134.531 40.9489C135.634 40.9489 136.586 41.1856 137.386 41.6591C138.191 42.1278 138.811 42.786 139.247 43.6335C139.682 44.4763 139.9 45.4612 139.9 46.5881C139.9 47.7055 139.682 48.688 139.247 49.5355C138.811 50.3783 138.191 51.0365 137.386 51.5099C136.586 51.9787 135.634 52.2131 134.531 52.2131ZM134.545 49.8693C135.047 49.8693 135.466 49.7273 135.802 49.4432C136.138 49.1544 136.392 48.7614 136.562 48.2642C136.737 47.767 136.825 47.2012 136.825 46.5668C136.825 45.9323 136.737 45.3665 136.562 44.8693C136.392 44.3722 136.138 43.9792 135.802 43.6903C135.466 43.4015 135.047 43.2571 134.545 43.2571C134.038 43.2571 133.612 43.4015 133.267 43.6903C132.926 43.9792 132.668 44.3722 132.493 44.8693C132.322 45.3665 132.237 45.9323 132.237 46.5668C132.237 47.2012 132.322 47.767 132.493 48.2642C132.668 48.7614 132.926 49.1544 133.267 49.4432C133.612 49.7273 134.038 49.8693 134.545 49.8693ZM141.868 52V41.0909H146.52C147.864 41.0909 148.927 41.3466 149.708 41.858C150.49 42.3693 150.88 43.0961 150.88 44.0384C150.88 44.6302 150.66 45.1226 150.22 45.5156C149.779 45.9086 149.169 46.1738 148.387 46.3111C149.041 46.3584 149.597 46.5076 150.056 46.7585C150.52 47.0047 150.873 47.3243 151.115 47.7173C151.361 48.1103 151.484 48.5459 151.484 49.0241C151.484 49.6444 151.318 50.1771 150.987 50.6222C150.66 51.0672 150.18 51.4081 149.545 51.6449C148.915 51.8816 148.146 52 147.237 52H141.868ZM144.687 49.7344H147.237C147.658 49.7344 147.987 49.6349 148.224 49.4361C148.466 49.2325 148.586 48.9555 148.586 48.6051C148.586 48.2169 148.466 47.9115 148.224 47.6889C147.987 47.4664 147.658 47.3551 147.237 47.3551H144.687V49.7344ZM144.687 45.5795H146.583C146.886 45.5795 147.145 45.5369 147.358 45.4517C147.575 45.3617 147.741 45.2339 147.855 45.0682C147.973 44.9025 148.032 44.706 148.032 44.4787C148.032 44.1425 147.897 43.8797 147.627 43.6903C147.358 43.5009 146.988 43.4062 146.52 43.4062H144.687V45.5795ZM157.168 55.196V49.5994H158.006C158.247 49.4479 158.441 49.2064 158.588 48.875C158.74 48.5436 158.863 48.1529 158.957 47.7031C159.057 47.2533 159.133 46.768 159.185 46.2472C159.241 45.7216 159.291 45.1913 159.334 44.6562L159.618 41.0909H167.984V49.5994H169.675V55.196H166.791V52H160.122V55.196H157.168ZM161.017 49.5994H165.129V43.4205H162.189L162.075 44.6562C161.995 45.821 161.879 46.8106 161.727 47.625C161.576 48.4347 161.339 49.0928 161.017 49.5994ZM176.367 52.2131C175.264 52.2131 174.31 51.9787 173.505 51.5099C172.704 51.0365 172.087 50.3783 171.651 49.5355C171.215 48.688 170.998 47.7055 170.998 46.5881C170.998 45.4612 171.215 44.4763 171.651 43.6335C172.087 42.786 172.704 42.1278 173.505 41.6591C174.31 41.1856 175.264 40.9489 176.367 40.9489C177.47 40.9489 178.422 41.1856 179.222 41.6591C180.027 42.1278 180.647 42.786 181.083 43.6335C181.518 44.4763 181.736 45.4612 181.736 46.5881C181.736 47.7055 181.518 48.688 181.083 49.5355C180.647 50.3783 180.027 51.0365 179.222 51.5099C178.422 51.9787 177.47 52.2131 176.367 52.2131ZM176.381 49.8693C176.883 49.8693 177.302 49.7273 177.638 49.4432C177.974 49.1544 178.228 48.7614 178.398 48.2642C178.573 47.767 178.661 47.2012 178.661 46.5668C178.661 45.9323 178.573 45.3665 178.398 44.8693C178.228 44.3722 177.974 43.9792 177.638 43.6903C177.302 43.4015 176.883 43.2571 176.381 43.2571C175.874 43.2571 175.448 43.4015 175.103 43.6903C174.762 43.9792 174.504 44.3722 174.328 44.8693C174.158 45.3665 174.073 45.9323 174.073 46.5668C174.073 47.2012 174.158 47.767 174.328 48.2642C174.504 48.7614 174.762 49.1544 175.103 49.4432C175.448 49.7273 175.874 49.8693 176.381 49.8693ZM188.879 52L194.909 40.0682V39.9688H187.885V37.4545H198.091V40.0043L192.054 52H188.879ZM204.004 55.196V49.5994H204.842C205.083 49.4479 205.277 49.2064 205.424 48.875C205.576 48.5436 205.699 48.1529 205.793 47.7031C205.893 47.2533 205.969 46.768 206.021 46.2472C206.077 45.7216 206.127 45.1913 206.17 44.6562L206.454 41.0909H214.82V49.5994H216.511V55.196H213.627V52H206.958V55.196H204.004ZM207.853 49.5994H211.965V43.4205H209.025L208.911 44.6562C208.831 45.821 208.715 46.8106 208.563 47.625C208.412 48.4347 208.175 49.0928 207.853 49.5994ZM225.866 45.3381V47.7173H220.17V45.3381H225.866ZM221.164 41.0909V52H218.274V41.0909H221.164ZM227.762 41.0909V52H224.893V41.0909H227.762ZM235.081 52.2131C233.959 52.2131 232.993 51.9858 232.184 51.5312C231.379 51.072 230.758 50.4233 230.323 49.5852C229.887 48.7424 229.669 47.7457 229.669 46.5952C229.669 45.473 229.887 44.4882 230.323 43.6406C230.758 42.7931 231.372 42.1326 232.162 41.6591C232.958 41.1856 233.891 40.9489 234.961 40.9489C235.68 40.9489 236.35 41.0649 236.971 41.2969C237.596 41.5241 238.14 41.8674 238.604 42.3267C239.073 42.786 239.437 43.3636 239.698 44.0597C239.958 44.7509 240.088 45.5606 240.088 46.4886V47.3196H230.877V45.4446H237.24C237.24 45.009 237.146 44.6231 236.956 44.2869C236.767 43.9508 236.504 43.688 236.168 43.4986C235.837 43.3045 235.451 43.2074 235.01 43.2074C234.551 43.2074 234.144 43.3139 233.789 43.527C233.438 43.7353 233.164 44.017 232.965 44.3722C232.766 44.7225 232.664 45.1132 232.659 45.544V47.3267C232.659 47.8665 232.759 48.3329 232.958 48.7259C233.161 49.1188 233.448 49.4219 233.817 49.6349C234.186 49.848 234.624 49.9545 235.131 49.9545C235.467 49.9545 235.775 49.9072 236.054 49.8125C236.334 49.7178 236.573 49.5758 236.772 49.3864C236.971 49.197 237.122 48.965 237.226 48.6903L240.025 48.875C239.882 49.5473 239.591 50.1345 239.151 50.6364C238.715 51.1335 238.152 51.5218 237.461 51.8011C236.774 52.0758 235.981 52.2131 235.081 52.2131ZM244.953 48.0085L248.881 41.0909H251.864V52H248.98V45.0611L245.067 52H242.063V41.0909H244.953V48.0085ZM248.363 37.2841H250.472C250.467 38.1458 250.148 38.8395 249.513 39.3651C248.883 39.8906 248.031 40.1534 246.956 40.1534C245.877 40.1534 245.022 39.8906 244.392 39.3651C243.763 38.8395 243.448 38.1458 243.448 37.2841H245.543C245.538 37.6108 245.642 37.9044 245.855 38.1648C246.073 38.4252 246.44 38.5554 246.956 38.5554C247.458 38.5554 247.818 38.4276 248.036 38.1719C248.254 37.9162 248.363 37.6203 248.363 37.2841Z" fill="white"/>
<defs>
<linearGradient id="paint0_linear_0_1" x1="418" y1="33.0002" x2="-3.51484e-06" y2="60.0001" gradientUnits="userSpaceOnUse">
<stop stop-color="#4500A1"/>
<stop offset="1" stop-color="#4500A1" stop-opacity="0"/>
</linearGradient>
<linearGradient id="paint1_linear_0_1" x1="0" y1="33" x2="418" y2="60" gradientUnits="userSpaceOnUse">
<stop stop-color="#EE5E30"/>
<stop offset="0.84375" stop-color="#EE5E30" stop-opacity="0"/>
</linearGradient>
</defs>
</svg>
