<svg width="513" height="166" viewBox="0 0 513 166" fill="none" xmlns="http://www.w3.org/2000/svg">
<rect y="34" width="513" height="132" fill="url(#paint0_linear_0_1)"/>
<rect y="34" width="513" height="132" fill="url(#paint1_linear_0_1)"/>
<path d="M1.76136 24V0.727272H11.4659C13.2083 0.727272 14.6667 0.973484 15.8409 1.46591C17.0227 1.95833 17.9091 2.64773 18.5 3.53409C19.0985 4.42045 19.3977 5.44697 19.3977 6.61364C19.3977 7.5 19.2121 8.29167 18.8409 8.98864C18.4697 9.67803 17.9583 10.25 17.3068 10.7045C16.6553 11.1591 15.9015 11.4773 15.0455 11.6591V11.8864C15.9848 11.9318 16.8523 12.1856 17.6477 12.6477C18.4508 13.1098 19.0947 13.7538 19.5795 14.5795C20.0644 15.3977 20.3068 16.3674 20.3068 17.4886C20.3068 18.7386 19.9886 19.8561 19.3523 20.8409C18.7159 21.8182 17.7955 22.5909 16.5909 23.1591C15.3864 23.7197 13.9242 24 12.2045 24H1.76136ZM7.38636 19.4659H10.8636C12.0833 19.4659 12.9811 19.2348 13.5568 18.7727C14.1402 18.3106 14.4318 17.6667 14.4318 16.8409C14.4318 16.2424 14.2917 15.7273 14.0114 15.2955C13.7311 14.8561 13.3333 14.5189 12.8182 14.2841C12.303 14.0417 11.6856 13.9205 10.9659 13.9205H7.38636V19.4659ZM7.38636 10.2955H10.5C11.1136 10.2955 11.6591 10.1932 12.1364 9.98864C12.6136 9.78409 12.9848 9.48864 13.25 9.10227C13.5227 8.71591 13.6591 8.25 13.6591 7.70454C13.6591 6.92424 13.3826 6.31061 12.8295 5.86364C12.2765 5.41667 11.5303 5.19318 10.5909 5.19318H7.38636V10.2955ZM26.2727 11.5909H31.5682C33.9697 11.5909 35.8523 12.1553 37.2159 13.2841C38.5795 14.4053 39.2652 15.928 39.2727 17.8523C39.2652 19.1023 38.9508 20.1894 38.3295 21.1136C37.7159 22.0303 36.8333 22.7424 35.6818 23.25C34.5379 23.75 33.1667 24 31.5682 24H23.0114V6.54545H28.2727V19.75H31.5682C32.2955 19.75 32.8939 19.572 33.3636 19.2159C33.8333 18.8598 34.072 18.4015 34.0795 17.8409C34.072 17.25 33.8333 16.7689 33.3636 16.3977C32.8939 16.0265 32.2955 15.8409 31.5682 15.8409H26.2727V11.5909ZM40.8409 24V6.54545H46.3977V24H40.8409ZM64.9403 24.3295C63.107 24.3295 61.5313 23.9545 60.2131 23.2045C58.9025 22.447 57.8911 21.3939 57.179 20.0455C56.4744 18.6894 56.1222 17.1174 56.1222 15.3295C56.1222 13.5341 56.4744 11.9621 57.179 10.6136C57.8911 9.25758 58.9025 8.20454 60.2131 7.45454C61.5313 6.69697 63.107 6.31818 64.9403 6.31818C66.7737 6.31818 68.3456 6.69697 69.6562 7.45454C70.9744 8.20454 71.9858 9.25758 72.6903 10.6136C73.4025 11.9621 73.7585 13.5341 73.7585 15.3295C73.7585 17.1174 73.4025 18.6894 72.6903 20.0455C71.9858 21.3939 70.9744 22.447 69.6562 23.2045C68.3456 23.9545 66.7737 24.3295 64.9403 24.3295ZM64.9744 20.1364C65.6411 20.1364 66.2055 19.9318 66.6676 19.5227C67.1297 19.1136 67.482 18.5455 67.7244 17.8182C67.9744 17.0909 68.0994 16.25 68.0994 15.2955C68.0994 14.3258 67.9744 13.4773 67.7244 12.75C67.482 12.0227 67.1297 11.4545 66.6676 11.0455C66.2055 10.6364 65.6411 10.4318 64.9744 10.4318C64.285 10.4318 63.7017 10.6364 63.2244 11.0455C62.7547 11.4545 62.3949 12.0227 62.1449 12.75C61.9025 13.4773 61.7812 14.3258 61.7812 15.2955C61.7812 16.25 61.9025 17.0909 62.1449 17.8182C62.3949 18.5455 62.7547 19.1136 63.2244 19.5227C63.7017 19.9318 64.285 20.1364 64.9744 20.1364ZM84.7528 24.3295C82.9119 24.3295 81.3324 23.9508 80.0142 23.1932C78.7036 22.4356 77.696 21.3826 76.9915 20.0341C76.2869 18.678 75.9347 17.1098 75.9347 15.3295C75.9347 13.5417 76.2869 11.9735 76.9915 10.625C77.7036 9.26894 78.715 8.21212 80.0256 7.45454C81.3438 6.69697 82.9157 6.31818 84.7415 6.31818C86.3551 6.31818 87.7604 6.60985 88.9574 7.19318C90.1619 7.77651 91.1013 8.60227 91.7756 9.67045C92.4574 10.7311 92.8172 11.9773 92.8551 13.4091H87.6619C87.5559 12.5152 87.2528 11.8144 86.7528 11.3068C86.2604 10.7992 85.6165 10.5455 84.821 10.5455C84.1771 10.5455 83.6127 10.7273 83.1278 11.0909C82.643 11.447 82.2642 11.9773 81.9915 12.6818C81.7263 13.3788 81.5938 14.2424 81.5938 15.2727C81.5938 16.303 81.7263 17.1742 81.9915 17.8864C82.2642 18.5909 82.643 19.125 83.1278 19.4886C83.6127 19.8447 84.1771 20.0227 84.821 20.0227C85.3362 20.0227 85.7907 19.9129 86.1847 19.6932C86.5862 19.4735 86.9157 19.1515 87.1733 18.7273C87.4309 18.2955 87.5938 17.7727 87.6619 17.1591H92.8551C92.8021 18.5985 92.4422 19.8561 91.7756 20.9318C91.1165 22.0076 90.1884 22.8447 88.9915 23.4432C87.8021 24.0341 86.3892 24.3295 84.7528 24.3295ZM94.5938 10.7955V6.54545H110.957V10.7955H105.378V24H100.105V10.7955H94.5938ZM117.994 24.2955C116.881 24.2955 115.892 24.1098 115.028 23.7386C114.172 23.3598 113.494 22.7917 112.994 22.0341C112.502 21.2689 112.256 20.3106 112.256 19.1591C112.256 18.1894 112.426 17.3712 112.767 16.7045C113.108 16.0379 113.578 15.4962 114.176 15.0795C114.775 14.6629 115.464 14.3485 116.244 14.1364C117.025 13.9167 117.858 13.7689 118.744 13.6932C119.737 13.6023 120.536 13.5076 121.142 13.4091C121.748 13.303 122.188 13.1553 122.46 12.9659C122.741 12.7689 122.881 12.4924 122.881 12.1364V12.0795C122.881 11.4962 122.68 11.0455 122.278 10.7273C121.877 10.4091 121.335 10.25 120.653 10.25C119.919 10.25 119.328 10.4091 118.881 10.7273C118.434 11.0455 118.15 11.4848 118.028 12.0455L112.903 11.8636C113.055 10.803 113.445 9.85606 114.074 9.02273C114.71 8.18182 115.581 7.52273 116.688 7.04545C117.801 6.56061 119.138 6.31818 120.699 6.31818C121.813 6.31818 122.839 6.45076 123.778 6.71591C124.718 6.97348 125.536 7.35227 126.233 7.85227C126.93 8.3447 127.468 8.95076 127.847 9.67045C128.233 10.3902 128.426 11.2121 128.426 12.1364V24H123.199V21.5682H123.062C122.752 22.1591 122.354 22.6591 121.869 23.0682C121.392 23.4773 120.828 23.7841 120.176 23.9886C119.532 24.1932 118.805 24.2955 117.994 24.2955ZM119.71 20.6591C120.309 20.6591 120.847 20.5379 121.324 20.2955C121.809 20.053 122.195 19.7197 122.483 19.2955C122.771 18.8636 122.915 18.3636 122.915 17.7955V16.1364C122.756 16.2197 122.563 16.2955 122.335 16.3636C122.116 16.4318 121.873 16.4962 121.608 16.5568C121.343 16.6174 121.07 16.6705 120.79 16.7159C120.509 16.7614 120.241 16.803 119.983 16.8409C119.46 16.9242 119.013 17.053 118.642 17.2273C118.278 17.4015 117.998 17.6288 117.801 17.9091C117.612 18.1818 117.517 18.5076 117.517 18.8864C117.517 19.4621 117.722 19.9015 118.131 20.2045C118.547 20.5076 119.074 20.6591 119.71 20.6591ZM131.824 24V6.54545H139.358C141.608 6.54545 143.381 6.95076 144.676 7.76136C145.979 8.56439 146.631 9.74242 146.631 11.2955C146.631 12.197 146.263 12.9735 145.528 13.625C144.801 14.2689 143.767 14.7045 142.426 14.9318C143.608 14.9924 144.589 15.2273 145.369 15.6364C146.15 16.0455 146.733 16.5644 147.119 17.1932C147.506 17.822 147.699 18.4924 147.699 19.2045C147.699 20.2348 147.422 21.1061 146.869 21.8182C146.316 22.5303 145.506 23.072 144.438 23.4432C143.377 23.8144 142.074 24 140.528 24H131.824ZM136.994 19.9773H140.528C141.119 19.9773 141.581 19.8371 141.915 19.5568C142.256 19.2765 142.426 18.8902 142.426 18.3977C142.426 17.8674 142.256 17.4508 141.915 17.1477C141.581 16.8447 141.119 16.6932 140.528 16.6932H136.994V19.9773ZM136.994 13.6818H139.506C139.907 13.6818 140.252 13.6212 140.54 13.5C140.828 13.3788 141.047 13.2045 141.199 12.9773C141.358 12.75 141.438 12.4773 141.438 12.1591C141.438 11.697 141.252 11.3333 140.881 11.0682C140.517 10.803 140.009 10.6705 139.358 10.6705H136.994V13.6818ZM155.71 16.8068L161.29 6.54545H166.631V24H161.369V13.7045L155.801 24H150.449V6.54545H155.71V16.8068ZM169.315 24L169.281 19.7159H169.838C170.217 19.7159 170.546 19.6174 170.827 19.4205C171.107 19.2235 171.342 18.9091 171.531 18.4773C171.721 18.0379 171.872 17.4735 171.986 16.7841C172.099 16.0947 172.171 15.2576 172.202 14.2727L172.486 6.54545H186.304V24H181.043V10.7955H177.429L177.156 15.8182C177.088 17.2955 176.895 18.5568 176.577 19.6023C176.266 20.6402 175.842 21.4811 175.304 22.125C174.774 22.7689 174.145 23.2424 173.418 23.5455C172.69 23.8485 171.868 24 170.952 24H169.315ZM194.96 16.8068L200.54 6.54545H205.881V24H200.619V13.7045L195.051 24H189.699V6.54545H194.96V16.8068ZM215.463 18.8864H220.759C220.774 19.4015 220.997 19.8106 221.429 20.1136C221.868 20.4167 222.433 20.5682 223.122 20.5682C223.819 20.5682 224.395 20.4015 224.849 20.0682C225.312 19.7273 225.543 19.2576 225.543 18.6591C225.543 18.2955 225.448 17.9773 225.259 17.7045C225.077 17.4242 224.819 17.2045 224.486 17.0455C224.16 16.8864 223.781 16.8068 223.349 16.8068H221.009V13.3864H223.349C223.993 13.3864 224.501 13.2348 224.872 12.9318C225.243 12.6288 225.429 12.2462 225.429 11.7841C225.429 11.2614 225.24 10.8371 224.861 10.5114C224.49 10.1856 223.993 10.0227 223.372 10.0227C222.759 10.0227 222.251 10.1629 221.849 10.4432C221.448 10.7235 221.243 11.0871 221.236 11.5341H215.94C215.948 10.4508 216.27 9.52273 216.906 8.75C217.55 7.9697 218.414 7.37121 219.497 6.95454C220.588 6.5303 221.8 6.31818 223.134 6.31818C224.626 6.31818 225.91 6.51515 226.986 6.90909C228.069 7.29545 228.899 7.85606 229.474 8.59091C230.05 9.31818 230.338 10.2045 230.338 11.25C230.338 12.1591 230.024 12.928 229.395 13.5568C228.774 14.1856 227.876 14.6326 226.702 14.8977V15.0795C227.437 15.1174 228.111 15.303 228.724 15.6364C229.338 15.9621 229.834 16.4242 230.213 17.0227C230.592 17.6136 230.781 18.3295 230.781 19.1705C230.781 20.2538 230.452 21.1818 229.793 21.9545C229.134 22.7197 228.228 23.3068 227.077 23.7159C225.933 24.125 224.618 24.3295 223.134 24.3295C221.687 24.3295 220.391 24.1288 219.247 23.7273C218.111 23.3182 217.205 22.7083 216.531 21.8977C215.857 21.0871 215.501 20.0833 215.463 18.8864ZM238.432 24.2955C237.318 24.2955 236.33 24.1098 235.466 23.7386C234.61 23.3598 233.932 22.7917 233.432 22.0341C232.939 21.2689 232.693 20.3106 232.693 19.1591C232.693 18.1894 232.864 17.3712 233.205 16.7045C233.545 16.0379 234.015 15.4962 234.614 15.0795C235.212 14.6629 235.902 14.3485 236.682 14.1364C237.462 13.9167 238.295 13.7689 239.182 13.6932C240.174 13.6023 240.973 13.5076 241.58 13.4091C242.186 13.303 242.625 13.1553 242.898 12.9659C243.178 12.7689 243.318 12.4924 243.318 12.1364V12.0795C243.318 11.4962 243.117 11.0455 242.716 10.7273C242.314 10.4091 241.773 10.25 241.091 10.25C240.356 10.25 239.765 10.4091 239.318 10.7273C238.871 11.0455 238.587 11.4848 238.466 12.0455L233.341 11.8636C233.492 10.803 233.883 9.85606 234.511 9.02273C235.148 8.18182 236.019 7.52273 237.125 7.04545C238.239 6.56061 239.576 6.31818 241.136 6.31818C242.25 6.31818 243.277 6.45076 244.216 6.71591C245.155 6.97348 245.973 7.35227 246.67 7.85227C247.367 8.3447 247.905 8.95076 248.284 9.67045C248.67 10.3902 248.864 11.2121 248.864 12.1364V24H243.636V21.5682H243.5C243.189 22.1591 242.792 22.6591 242.307 23.0682C241.83 23.4773 241.265 23.7841 240.614 23.9886C239.97 24.1932 239.242 24.2955 238.432 24.2955ZM240.148 20.6591C240.746 20.6591 241.284 20.5379 241.761 20.2955C242.246 20.053 242.633 19.7197 242.92 19.2955C243.208 18.8636 243.352 18.3636 243.352 17.7955V16.1364C243.193 16.2197 243 16.2955 242.773 16.3636C242.553 16.4318 242.311 16.4962 242.045 16.5568C241.78 16.6174 241.508 16.6705 241.227 16.7159C240.947 16.7614 240.678 16.803 240.42 16.8409C239.898 16.9242 239.451 17.053 239.08 17.2273C238.716 17.4015 238.436 17.6288 238.239 17.9091C238.049 18.1818 237.955 18.5076 237.955 18.8864C237.955 19.4621 238.159 19.9015 238.568 20.2045C238.985 20.5076 239.511 20.6591 240.148 20.6591ZM262.398 24V10.7841H259.58C258.739 10.7841 258.11 10.9773 257.693 11.3636C257.277 11.75 257.076 12.1742 257.091 12.6364C257.076 13.1136 257.28 13.5341 257.705 13.8977C258.129 14.2614 258.769 14.4432 259.625 14.4432H264.318V17.9659H259.625C258.027 17.9659 256.64 17.7348 255.466 17.2727C254.299 16.803 253.398 16.1553 252.761 15.3295C252.133 14.4962 251.822 13.5379 251.83 12.4545C251.822 11.2955 252.133 10.2727 252.761 9.38636C253.39 8.49242 254.284 7.79545 255.443 7.29545C256.61 6.79545 257.989 6.54545 259.58 6.54545H267.568V24H262.398ZM251.489 24L256.295 14.7727H261.5L256.693 24H251.489ZM270.949 24V6.54545H278.483C280.733 6.54545 282.506 6.95076 283.801 7.76136C285.104 8.56439 285.756 9.74242 285.756 11.2955C285.756 12.197 285.388 12.9735 284.653 13.625C283.926 14.2689 282.892 14.7045 281.551 14.9318C282.733 14.9924 283.714 15.2273 284.494 15.6364C285.275 16.0455 285.858 16.5644 286.244 17.1932C286.631 17.822 286.824 18.4924 286.824 19.2045C286.824 20.2348 286.547 21.1061 285.994 21.8182C285.441 22.5303 284.631 23.072 283.562 23.4432C282.502 23.8144 281.199 24 279.653 24H270.949ZM276.119 19.9773H279.653C280.244 19.9773 280.706 19.8371 281.04 19.5568C281.381 19.2765 281.551 18.8902 281.551 18.3977C281.551 17.8674 281.381 17.4508 281.04 17.1477C280.706 16.8447 280.244 16.6932 279.653 16.6932H276.119V19.9773ZM276.119 13.6818H278.631C279.032 13.6818 279.377 13.6212 279.665 13.5C279.953 13.3788 280.172 13.2045 280.324 12.9773C280.483 12.75 280.562 12.4773 280.562 12.1591C280.562 11.697 280.377 11.3333 280.006 11.0682C279.642 10.803 279.134 10.6705 278.483 10.6705H276.119V13.6818ZM289.574 24V6.54545H295.131V13.0455H296.358L300.597 6.54545H307.028L301.153 15.2841L307.085 24H300.574L296.744 18.2045H295.131V24H289.574ZM312.597 30.5455C311.93 30.5455 311.301 30.4924 310.71 30.3864C310.119 30.2879 309.612 30.1553 309.188 29.9886L310.415 25.9545C310.96 26.1364 311.453 26.2424 311.892 26.2727C312.339 26.303 312.722 26.2311 313.04 26.0568C313.366 25.8902 313.616 25.5909 313.79 25.1591L314.006 24.6364L307.801 6.54545H313.619L316.835 19H317.017L320.278 6.54545H326.131L319.551 25.6705C319.233 26.625 318.782 27.4659 318.199 28.1932C317.623 28.928 316.877 29.5038 315.96 29.9205C315.051 30.3371 313.93 30.5455 312.597 30.5455Z" fill="white"/>
<path d="M119.375 104.298C117.599 104.298 116.08 103.947 114.815 103.244C113.551 102.533 112.582 101.546 111.907 100.282C111.232 99.0107 110.895 97.5369 110.895 95.8608C110.895 94.1847 111.232 92.7145 111.907 91.4503C112.582 90.179 113.551 89.1918 114.815 88.4886C116.08 87.7784 117.599 87.4233 119.375 87.4233C121.151 87.4233 122.67 87.7784 123.935 88.4886C125.199 89.1918 126.168 90.179 126.843 91.4503C127.518 92.7145 127.855 94.1847 127.855 95.8608C127.855 97.5369 127.518 99.0107 126.843 100.282C126.168 101.546 125.199 102.533 123.935 103.244C122.67 103.947 121.151 104.298 119.375 104.298ZM119.418 99.9517C119.915 99.9517 120.344 99.7848 120.707 99.451C121.069 99.1172 121.349 98.6413 121.548 98.0234C121.747 97.4055 121.847 96.6705 121.847 95.8182C121.847 94.9588 121.747 94.2237 121.548 93.6129C121.349 92.995 121.069 92.5192 120.707 92.1854C120.344 91.8516 119.915 91.6847 119.418 91.6847C118.892 91.6847 118.441 91.8516 118.065 92.1854C117.688 92.5192 117.401 92.995 117.202 93.6129C117.003 94.2237 116.903 94.9588 116.903 95.8182C116.903 96.6705 117.003 97.4055 117.202 98.0234C117.401 98.6413 117.688 99.1172 118.065 99.451C118.441 99.7848 118.892 99.9517 119.418 99.9517ZM128.992 92.0256V87.6364H144.845V92.0256H139.646V104H134.106V92.0256H128.992ZM163.659 82.1818V104H157.735V87.6364H157.607L152.835 90.4915V85.4631L158.204 82.1818H163.659ZM173.177 108.858V99.5682H174.371C174.747 99.419 175.042 99.0675 175.255 98.5135C175.475 97.9524 175.642 97.2955 175.756 96.5426C175.876 95.7898 175.961 95.0298 176.011 94.2628C176.068 93.4886 176.118 92.8139 176.16 92.2386L176.501 87.6364H190.479V99.5682H193.035V108.858H187.496V104H178.888V108.858H173.177ZM179.996 99.5682H185.024V91.8977H181.359V92.2386C181.274 94.0071 181.132 95.4808 180.933 96.6598C180.734 97.8317 180.422 98.8011 179.996 99.5682ZM203.105 104.298C201.33 104.298 199.81 103.947 198.546 103.244C197.282 102.533 196.312 101.546 195.637 100.282C194.963 99.0107 194.625 97.5369 194.625 95.8608C194.625 94.1847 194.963 92.7145 195.637 91.4503C196.312 90.179 197.282 89.1918 198.546 88.4886C199.81 87.7784 201.33 87.4233 203.105 87.4233C204.881 87.4233 206.401 87.7784 207.665 88.4886C208.929 89.1918 209.899 90.179 210.574 91.4503C211.248 92.7145 211.586 94.1847 211.586 95.8608C211.586 97.5369 211.248 99.0107 210.574 100.282C209.899 101.546 208.929 102.533 207.665 103.244C206.401 103.947 204.881 104.298 203.105 104.298ZM203.148 99.9517C203.645 99.9517 204.075 99.7848 204.437 99.451C204.799 99.1172 205.08 98.6413 205.279 98.0234C205.478 97.4055 205.577 96.6705 205.577 95.8182C205.577 94.9588 205.478 94.2237 205.279 93.6129C205.08 92.995 204.799 92.5192 204.437 92.1854C204.075 91.8516 203.645 91.6847 203.148 91.6847C202.623 91.6847 202.172 91.8516 201.795 92.1854C201.419 92.5192 201.131 92.995 200.932 93.6129C200.733 94.2237 200.634 94.9588 200.634 95.8182C200.634 96.6705 200.733 97.4055 200.932 98.0234C201.131 98.6413 201.419 99.1172 201.795 99.451C202.172 99.7848 202.623 99.9517 203.148 99.9517ZM228.429 104.298C226.71 104.298 225.183 104.004 223.848 103.414C222.52 102.817 221.475 101.997 220.716 100.953C219.956 99.9091 219.572 98.7088 219.565 97.3523H225.531C225.538 97.7713 225.666 98.1477 225.914 98.4815C226.17 98.8082 226.518 99.0639 226.958 99.2486C227.399 99.4332 227.903 99.5256 228.471 99.5256C229.018 99.5256 229.501 99.4297 229.92 99.2379C230.339 99.0391 230.666 98.7656 230.9 98.4176C231.135 98.0696 231.248 97.6719 231.241 97.2244C231.248 96.7841 231.113 96.3935 230.836 96.0526C230.566 95.7116 230.186 95.4453 229.696 95.2536C229.206 95.0618 228.642 94.9659 228.002 94.9659H225.787V90.875H228.002C228.592 90.875 229.11 90.7791 229.558 90.5874C230.012 90.3956 230.364 90.1293 230.613 89.7884C230.868 89.4474 230.993 89.0568 230.985 88.6165C230.993 88.1903 230.89 87.8139 230.676 87.4872C230.463 87.1605 230.165 86.9048 229.782 86.7202C229.405 86.5355 228.968 86.4432 228.471 86.4432C227.931 86.4432 227.449 86.5391 227.022 86.7308C226.603 86.9226 226.273 87.1889 226.032 87.5298C225.79 87.8707 225.666 88.2614 225.659 88.7017H219.991C219.998 87.3665 220.364 86.1875 221.088 85.1648C221.82 84.142 222.821 83.3395 224.093 82.7571C225.364 82.1747 226.824 81.8835 228.471 81.8835C230.083 81.8835 231.507 82.157 232.743 82.7038C233.986 83.2507 234.956 84.0036 235.652 84.9624C236.355 85.9141 236.703 87.0043 236.696 88.233C236.71 89.4545 236.291 90.456 235.439 91.2372C234.593 92.0185 233.521 92.4801 232.221 92.6222V92.7926C233.983 92.9844 235.307 93.5241 236.195 94.4119C237.083 95.2926 237.52 96.4006 237.505 97.7358C237.512 99.0142 237.129 100.147 236.355 101.134C235.588 102.121 234.519 102.896 233.148 103.457C231.784 104.018 230.211 104.298 228.429 104.298ZM249.653 104.597C247.671 104.589 245.96 104.131 244.518 103.222C243.076 102.313 241.965 101.003 241.183 99.2912C240.402 97.5795 240.015 95.527 240.022 93.1335C240.029 90.733 240.42 88.6946 241.194 87.0185C241.975 85.3423 243.083 84.0675 244.518 83.1939C245.96 82.3203 247.671 81.8835 249.653 81.8835C251.634 81.8835 253.346 82.3239 254.788 83.2045C256.23 84.0781 257.341 85.353 258.122 87.0291C258.904 88.7053 259.291 90.7401 259.284 93.1335C259.284 95.5412 258.893 97.6009 258.112 99.3125C257.33 101.024 256.219 102.335 254.777 103.244C253.343 104.146 251.634 104.597 249.653 104.597ZM249.653 99.7812C250.676 99.7812 251.514 99.2486 252.167 98.1832C252.828 97.1108 253.154 95.4276 253.147 93.1335C253.147 91.6349 252.998 90.4098 252.7 89.4581C252.401 88.5064 251.99 87.8033 251.464 87.3487C250.938 86.8871 250.335 86.6562 249.653 86.6562C248.63 86.6562 247.796 87.1747 247.149 88.2116C246.503 89.2486 246.173 90.8892 246.159 93.1335C246.151 94.6605 246.297 95.9176 246.595 96.9048C246.894 97.8849 247.306 98.6094 247.831 99.0781C248.364 99.5469 248.971 99.7812 249.653 99.7812ZM278.225 97.9062L281.805 87.6364H285.981L280.058 104H276.393L270.64 87.6364H274.816L278.225 97.9062ZM273.623 87.6364V104H268.083V87.6364H273.623ZM283.211 104V87.6364H288.666V104H283.211ZM297.031 96.5L301.591 87.6364H307.131V104H301.591V95.0938L297.031 104H291.491V87.6364H297.031V96.5ZM321.8 93.5597V97.9489H313.576V93.5597H321.8ZM315.664 87.6364V104H310.124V87.6364H315.664ZM325.252 87.6364V104H319.755V87.6364H325.252ZM331.048 110.136C330.373 110.136 329.73 110.083 329.119 109.977C328.509 109.877 327.972 109.739 327.511 109.561L328.789 105.385C329.272 105.555 329.712 105.665 330.11 105.715C330.515 105.765 330.859 105.737 331.143 105.63C331.435 105.523 331.644 105.321 331.772 105.023L331.9 104.724L326.147 87.6364H332.283L334.925 98.9716H335.096L337.781 87.6364H343.96L337.994 105.364C337.695 106.266 337.262 107.075 336.694 107.793C336.133 108.517 335.394 109.089 334.478 109.508C333.562 109.927 332.418 110.136 331.048 110.136ZM344.822 92.0256V87.6364H360.675V92.0256H355.476V104H349.936V92.0256H344.822Z" fill="white"/>
<defs>
<linearGradient id="paint0_linear_0_1" x1="513" y1="34.0001" x2="2.08517e-05" y2="166" gradientUnits="userSpaceOnUse">
<stop stop-color="#4500A1"/>
<stop offset="1" stop-color="#4500A1" stop-opacity="0"/>
</linearGradient>
<linearGradient id="paint1_linear_0_1" x1="5.73322e-06" y1="166" x2="513" y2="34" gradientUnits="userSpaceOnUse">
<stop stop-color="#EE5E30"/>
<stop offset="0.864583" stop-color="#EE5E30" stop-opacity="0"/>
</linearGradient>
</defs>
</svg>
